<svg width="43" height="19" viewBox="0 0 43 19" fill="none" xmlns="http://www.w3.org/2000/svg">
<path d="M12.0767 1.51549C12.1304 1.46247 12.279 1.11666 12.5227 0.478054C13.7761 0.485303 15.4539 0.868347 17.5562 1.62719C16.8767 3.83663 16.33 6.1535 15.916 8.57782C15.5021 10.9755 15.2921 12.6943 15.2861 13.7343C15.2803 14.7476 15.384 15.2549 15.5973 15.2561C15.7573 15.257 16.3454 15.0071 17.3617 14.5063L17.8431 14.2691L18.555 15.6732C18.3137 15.8851 17.9922 16.15 17.5903 16.4676C17.2152 16.7855 16.4926 17.2213 15.4227 17.7751C14.353 18.3023 13.3915 18.5634 12.5382 18.5584C10.8849 18.5489 9.9292 17.7967 9.67117 16.3018C7.9559 17.7853 6.40494 18.523 5.01829 18.515C3.65832 18.5071 2.50142 17.9671 1.54761 16.8948C0.620457 15.8228 0.163516 14.1401 0.17678 11.8468C0.197448 8.27356 0.947041 5.46452 2.42556 3.4197C3.90423 1.34822 5.68355 0.318494 7.76352 0.330525C9.25683 0.339162 10.6946 0.734151 12.0767 1.51549ZM7.43792 15.1289C8.07791 15.1326 8.79936 14.8834 9.60228 14.3814C9.81069 10.6225 10.4589 6.90622 11.5468 3.23246C10.7488 2.88117 10.0698 2.7039 9.50984 2.70067C8.54985 2.69511 7.71772 3.63698 7.01345 5.52627C6.336 7.38905 5.99072 9.45376 5.97761 11.7204C5.9645 13.987 6.45127 15.1232 7.43792 15.1289ZM28.5704 2.45091C27.5037 2.44474 26.6452 3.33312 25.9949 5.11605C25.3447 6.87232 25.0138 8.76377 25.0021 10.7904C24.9835 13.9904 25.9609 15.596 27.9342 15.6074C28.5742 15.6111 29.2551 15.4684 29.9768 15.1793C30.6986 14.8634 31.2737 14.5601 31.702 14.2692L32.3048 13.7927L33.2176 15.038C33.0026 15.3301 32.5737 15.7143 31.9309 16.1906C31.2882 16.6669 30.6859 17.0634 30.124 17.3801C29.5622 17.6969 28.8405 17.9861 27.959 18.2476C27.0774 18.5092 26.21 18.6375 25.3567 18.6326C23.2767 18.6206 21.7207 17.9315 20.6886 16.5656C19.6565 15.1996 19.147 13.3699 19.1603 11.0766C19.1787 7.90334 20.0602 5.33506 21.8049 3.37179C23.5763 1.40867 25.8353 0.435052 28.5819 0.450939C30.3686 0.461273 31.7795 0.882773 32.8147 1.71544C33.8767 2.5216 34.4042 3.52467 34.3973 4.72465C34.3905 5.89796 34.0113 6.90912 33.2597 7.75812C32.5931 7.75426 31.8206 7.60312 30.9423 7.30471C30.064 7.00629 29.3995 6.64244 28.9486 6.21316L29.5689 2.69668C29.3299 2.5353 28.997 2.45337 28.5704 2.45091ZM38.6149 18.7093C37.6816 18.7039 36.9632 18.4197 36.4598 17.8568C35.9564 17.2939 35.7074 16.5458 35.7128 15.6124C35.7182 14.6791 36.0695 13.8811 36.7666 13.2185C37.464 12.5292 38.2793 12.1872 39.2126 12.1926C40.1726 12.1982 40.9043 12.4824 41.4077 13.0453C41.9113 13.5816 42.1604 14.3164 42.155 15.2497C42.1497 16.1563 41.785 16.9676 41.0609 17.6834C40.3636 18.3727 39.5482 18.7147 38.6149 18.7093Z" fill="black"/>
</svg>
